<svg width="88" height="89" viewBox="0 0 88 89" fill="none" xmlns="http://www.w3.org/2000/svg">
<path fill-rule="evenodd" clip-rule="evenodd" d="M55.9681 20.7574L60.243 25.0355L48.4867 36.8007L44.2104 32.523L55.9681 20.7574Z" fill="#F26628"/>
<path fill-rule="evenodd" clip-rule="evenodd" d="M63.4473 27.7092L67.7222 31.9876L55.9676 43.7525L51.6913 39.4741L63.4473 27.7092Z" fill="#F26628"/>
<path fill-rule="evenodd" clip-rule="evenodd" d="M32.4546 43.7525L36.7296 48.0305L24.9736 59.7954L20.6986 55.5174L32.4546 43.7525Z" fill="#F26628"/>
<path fill-rule="evenodd" clip-rule="evenodd" d="M39.9348 50.7042L44.2094 54.9826L32.4548 66.7485L28.1802 62.4694L39.9348 50.7042Z" fill="#F26628"/>
<path fill-rule="evenodd" clip-rule="evenodd" d="M67.4613 55.586L63.2617 59.9371L51.3022 48.3794L55.5018 44.0284L67.4613 55.586Z" fill="#F26628"/>
<path fill-rule="evenodd" clip-rule="evenodd" d="M59.9813 63.0731L55.7817 67.4241L43.8222 55.8665L48.0218 51.5155L59.9813 63.0731Z" fill="#F26628"/>
<path fill-rule="evenodd" clip-rule="evenodd" d="M44.4841 32.0562L40.2842 36.4072L28.325 24.8506L32.5246 20.4975L44.4841 32.0562Z" fill="#F26628"/>
<path fill-rule="evenodd" clip-rule="evenodd" d="M37.0037 39.543L32.8041 43.894L20.8446 32.3371L25.0442 27.9861L37.0037 39.543Z" fill="#F26628"/>
<path d="M64.5081 26.6274C66.2789 26.6274 67.7145 25.1919 67.7145 23.421C67.7145 21.6502 66.2789 20.2146 64.5081 20.2146C62.7372 20.2146 61.3017 21.6502 61.3017 23.421C61.3017 25.1919 62.7372 26.6274 64.5081 26.6274Z" fill="#1C2937"/>
<path d="M22.8289 68.864C24.5997 68.864 26.0353 67.4284 26.0353 65.6576C26.0353 63.8867 24.5997 62.4512 22.8289 62.4512C21.058 62.4512 19.6225 63.8867 19.6225 65.6576C19.6225 67.4284 21.058 68.864 22.8289 68.864Z" fill="#1C2937"/>
<path fill-rule="evenodd" clip-rule="evenodd" d="M64.5123 61.9283C65.1465 61.9283 65.7665 62.1164 66.2938 62.4688C66.8212 62.8211 67.2322 63.3219 67.4749 63.9079C67.7176 64.4938 67.7811 65.1386 67.6574 65.7607C67.5337 66.3827 67.2283 66.9541 66.7798 67.4026C66.3313 67.851 65.7599 68.1564 65.1379 68.2802C64.5158 68.4039 63.8711 68.3404 63.2851 68.0977C62.6992 67.855 62.1983 67.444 61.846 66.9166C61.4936 66.3893 61.3055 65.7693 61.3055 65.1351C61.3055 64.7139 61.3884 64.2969 61.5495 63.9078C61.7107 63.5188 61.9469 63.1652 62.2447 62.8674C62.5425 62.5697 62.896 62.3335 63.2851 62.1723C63.6741 62.0112 64.0912 61.9283 64.5123 61.9283Z" fill="#1C2937"/>
<path d="M23.3528 26.6274C25.1236 26.6274 26.5592 25.1919 26.5592 23.421C26.5592 21.6502 25.1236 20.2146 23.3528 20.2146C21.5819 20.2146 20.1464 21.6502 20.1464 23.421C20.1464 25.1919 21.5819 26.6274 23.3528 26.6274Z" fill="#1C2937"/>
<path d="M44.198 47.4944C45.9689 47.4944 47.4044 46.0588 47.4044 44.288C47.4044 42.5172 45.9689 41.0816 44.198 41.0816C42.4272 41.0816 40.9916 42.5172 40.9916 44.288C40.9916 46.0588 42.4272 47.4944 44.198 47.4944Z" fill="#1C2937"/>
<path fill-rule="evenodd" clip-rule="evenodd" d="M28.1796 16.4791L44.2102 0.435806L59.707 15.9443L55.4321 20.2234L44.7429 8.99328L32.987 20.7582L28.1796 16.4791Z" fill="#1C2937"/>
<path fill-rule="evenodd" clip-rule="evenodd" d="M28.1796 72.0952L44.2102 88.1381L59.707 72.63L55.4321 68.352L44.7429 79.582L32.987 67.8172L28.1796 72.0952Z" fill="#1C2937"/>
<path fill-rule="evenodd" clip-rule="evenodd" d="M71.7304 27.9766L87.7614 44.0195L72.2646 59.528L67.9899 55.2496L79.2115 44.5543L67.4555 32.7894L71.7304 27.9766Z" fill="#1C2937"/>
<path fill-rule="evenodd" clip-rule="evenodd" d="M16.6904 27.9766L0.659485 44.0196L16.1577 59.528L20.4327 55.2496L9.20942 44.5544L20.9654 32.7895L16.6904 27.9766Z" fill="#1C2937"/>
</svg>
