<svg width="258" height="300" viewBox="0 0 258 300" fill="none" xmlns="http://www.w3.org/2000/svg">
<path d="M128.8 180.7C113.2 180.7 100.6 168.1 100.6 152.5V140.1C100.6 124.5 113.2 111.9 128.8 111.9C144.4 111.9 157 124.5 157 140.1V152.5C157 168.1 144.4 180.7 128.8 180.7Z" fill="#13AFB9"/>
<path d="M2 255.3V140.2C2 115.6 22 95.6 46.6 95.6C71.2 95.6 91.2 115.6 91.2 140.2V255.3C91.2 279.9 71.2 299.9 46.6 299.9C22 299.8 2 279.9 2 255.3Z" fill="#D43D36"/>
<path d="M98 254.4L13.6 170C-3.79995 152.6 -3.79995 124.4 13.6 107C31 89.6 59.2 89.6 76.6 107L161 191.4C178.4 208.8 178.4 237 161 254.4C143.6 271.8 115.4 271.8 98 254.4Z" fill="#F27063"/>
<path d="M255.7 255.3V140.2C255.7 115.6 235.7 95.6 211.1 95.6C186.5 95.6 166.5 115.6 166.5 140.2V255.3C166.5 279.9 186.5 299.9 211.1 299.9C235.7 299.8 255.7 279.9 255.7 255.3Z" fill="#F2B640"/>
<path d="M159.6 254.4L244 170C261.4 152.6 261.4 124.4 244 107C226.6 89.6 198.4 89.6 181 107L96.6 191.4C79.2 208.8 79.2 237 96.6 254.4C114 271.8 142.2 271.8 159.6 254.4Z" fill="#FFCD4D"/>
<path d="M129 107.3C144.464 107.3 157 94.764 157 79.3C157 63.836 144.464 51.3 129 51.3C113.536 51.3 101 63.836 101 79.3C101 94.764 113.536 107.3 129 107.3Z" fill="#13AFB9"/>
<path d="M46.6 89.7C71.3424 89.7 91.4 69.6424 91.4 44.9C91.4 20.1577 71.3424 0.100006 46.6 0.100006C21.8577 0.100006 1.80005 20.1577 1.80005 44.9C1.80005 69.6424 21.8577 89.7 46.6 89.7Z" fill="#F27063"/>
<path d="M211.1 89.7C235.842 89.7 255.9 69.6424 255.9 44.9C255.9 20.1577 235.842 0.100006 211.1 0.100006C186.358 0.100006 166.3 20.1577 166.3 44.9C166.3 69.6424 186.358 89.7 211.1 89.7Z" fill="#FFCD4D"/>
</svg>
