<svg width="66" height="70" viewBox="0 0 66 70" fill="none" xmlns="http://www.w3.org/2000/svg">
<path d="M58.6711 10.5537L34.2478 1.85498L12.1107 8.93662C10.5494 27.0589 29.4524 38.8803 29.4524 38.8803L31.1252 39.8282L31.7386 31.1295C29.4524 30.07 27.8911 27.7838 27.8911 25.0515C27.8911 21.3156 30.9021 18.3602 34.5824 18.3602C38.2626 18.3602 41.2737 21.3713 41.2737 25.0515C41.2737 28.0069 39.3778 30.5161 36.7013 31.4083L38.5972 44.1775L38.9875 44.4006C47.6304 48.3596 55.5485 46.7983 55.5485 46.7983C64.1914 36.5383 58.6711 10.5537 58.6711 10.5537Z" fill="white"/>
<path d="M23.987 1.8549C23.987 1.8549 -3.61471 -6.78805 1.12497 19.9772C1.12497 19.9772 2.68628 26.2782 5.86465 30.2372C5.86465 30.2372 8.26237 59.4002 34.247 69.6603C34.247 69.6603 43.7264 64.9206 47.6296 58.6196C47.6296 58.6196 63.41 60.1809 64.9713 47.5789C64.9713 47.5789 66.1423 40.1069 62.239 35.3673C62.239 35.3673 66.9787 53.4896 46.4586 51.1476C25.9386 48.8057 12.556 27.505 8.6527 18.0814C4.69367 8.54622 11.7753 -0.0967295 23.987 1.8549Z" fill="url(#paint0_linear_412_712)"/>
<path d="M26.5541 36.7617C26.5541 36.7617 34.6394 43.3414 43.6727 46.1295L49.8622 30.9625L41.7768 15.2379L23.8218 16.7435L24.714 30.0703L26.5541 36.7617Z" fill="white"/>
<path d="M42.8315 15.5165C42.8315 15.5165 45.1735 13.5091 44.5043 10.6095C44.5043 10.6095 51.1957 14.6243 49.1883 21.5386L42.8315 15.5165Z" fill="url(#paint1_linear_412_712)"/>
<path d="M22.9814 11.4457C22.9814 11.4457 31.011 13.7319 33.4087 22.9882C33.4087 22.9882 37.2005 20.0329 41.5498 20.8135C41.5498 20.8135 30.5649 24.438 26.9405 36.3708C26.9405 36.3708 36.3083 21.7614 55.3228 23.8804C55.3228 23.8804 51.6983 20.5905 49.1333 21.5384C49.2449 21.5942 42.4978 9.8286 22.9814 11.4457Z" fill="url(#paint2_linear_412_712)"/>
<defs>
<linearGradient id="paint0_linear_412_712" x1="0.577637" y1="35.0922" x2="65.1359" y2="35.0922" gradientUnits="userSpaceOnUse">
<stop stop-color="#2BC4F3"/>
<stop offset="0.5" stop-color="#00AEEE"/>
<stop offset="1" stop-color="#0095DA"/>
</linearGradient>
<linearGradient id="paint1_linear_412_712" x1="42.8534" y1="16.0741" x2="49.6139" y2="16.0741" gradientUnits="userSpaceOnUse">
<stop stop-color="#64C08A"/>
<stop offset="0.5" stop-color="#00A550"/>
<stop offset="1" stop-color="#00914C"/>
</linearGradient>
<linearGradient id="paint2_linear_412_712" x1="22.9814" y1="23.832" x2="55.3887" y2="23.832" gradientUnits="userSpaceOnUse">
<stop stop-color="#2BC4F3"/>
<stop offset="0.5" stop-color="#00AEEE"/>
<stop offset="1" stop-color="#0095DA"/>
</linearGradient>
</defs>
</svg>
