<?xml version="1.0" encoding="utf-8"?>
<!-- Generator: Adobe Illustrator 24.2.2, SVG Export Plug-In . SVG Version: 6.00 Build 0)  -->
<svg version="1.1" id="Layer_1" xmlns="http://www.w3.org/2000/svg" xmlns:xlink="http://www.w3.org/1999/xlink" x="0px" y="0px"
	 viewBox="0 0 94 100" style="enable-background:new 0 0 94 100;" xml:space="preserve">
<style type="text/css">
	.st0{fill:#BF452B;}
</style>
<path class="st0" d="M27.5,35.2c0.9-2.1,2.4-3.6,4.6-4.3c0.6-0.2,0.2-0.5,0.1-0.7c-1.4-2.9-2.8-5.7-4.3-8.6
	c-0.4-0.7-0.7-1.5-1.1-2.2c-1.1-2.2-0.4-4.6,1.7-5.6c2-1,4.3-0.2,5.4,2C39,25.9,44.1,36.1,49.2,46.2c0.3,0.7,0.6,0.8,1.2,0.4
	c4.1-1.9,8.2-3.8,12.3-5.7c2.4-1.2,4.5-0.8,6.5,1c4.1,3.7,8.2,7.3,12.3,11c2.3,2.1,2.1,5.5-0.5,7.2c-1.7,1.1-3.8,0.9-5.5-0.5
	c-3.1-2.7-6.2-5.5-9.3-8.3c-0.5-0.5-0.9-0.6-1.5-0.1c-0.6,0.4-1.2,0.8-1.9,1.1c-0.3,0.2-0.4,0.3-0.1,0.7c1,1.1,1.4,2.4,1.4,3.8
	c0,6,0.1,12,0.2,18c0.1,3.4-3,5.3-5.6,4.3c-1.7-0.6-2.7-2.1-2.8-4c0-2.7-0.1-5.5-0.1-8.2c0-1.4,0-2.8,0-4.3c0-0.6-0.1-0.7-0.7-0.5
	c-2.2,0.9-4.4,1.8-6.7,2.7c-4.2,1.6-7.8,0.6-10.7-2.8c-9-11-17.9-22-26.9-33c-1.9-2.3-1.1-5.5,1.6-6.5c1.7-0.6,3.2-0.1,4.4,1.3
	c2.5,2.8,5.1,5.6,7.6,8.5C25.6,33.1,26.5,34.1,27.5,35.2z M41.8,36.8c-0.1,0-0.1,0-0.2,0c0,0.4,0,0.7,0,1.1c0,3.8-3,6.8-6.9,7.2
	c-3.6,0.3-7-2.5-7.6-6.1c-0.1-0.5-0.3-0.8-0.6-1.2c-2.3-2.6-4.6-5.2-7-7.7c-1.5-1.6-2.9-3.2-4.4-4.8c-0.5-0.5-1.1-0.7-1.7-0.5
	c-0.6,0.2-0.9,0.7-1,1.3c-0.1,0.6,0.2,1,0.6,1.5c9,11.1,18,22.1,27,33.2c1.9,2.4,4.6,3.1,7.5,1.9c3-1.2,5.9-2.3,8.8-3.5
	c0.8-0.3,1.4-0.2,1.8,0.4c0.2,0.3,0.2,0.7,0.2,1.1c0,4.8,0.1,9.5,0.1,14.3c0,0.7,0.1,1.3,0.7,1.7c0.6,0.4,1.2,0.5,1.8,0.2
	c0.8-0.4,1-1,1-1.9c-0.1-6-0.1-12.1-0.2-18.1c0-2.2-1.5-3.3-3.6-2.7c-3.2,0.9-6.3,1.8-9.5,2.7c-0.9,0.3-1.5,0-1.7-0.8
	c-0.2-0.7,0.2-1.3,1.1-1.6c2.8-0.8,5.5-1.5,8.3-2.3c2-0.6,4.3-0.6,6-2.1c0.7-0.6,1.5-1,2.3-1.5c1.1-0.7,1.4-0.7,2.3,0.2
	c3.4,3,6.8,6,10.2,9c1,0.9,2.3,0.9,3.1,0c0.8-0.9,0.7-2.1-0.4-3.1c-4.1-3.7-8.3-7.4-12.4-11.1c-1.1-1-2.2-1.2-3.6-0.5
	c-4.6,2.2-9.3,4.3-14,6.4c-1.1,0.5-1.6,0.3-2.1-0.7c-0.5-1.1-1.1-2.1-1.6-3.2C44.8,42.7,43.3,39.7,41.8,36.8z M29.5,37.8
	c0,2.8,2.1,4.9,4.9,4.9c2.7,0,4.8-2.3,4.8-4.9c0-2.7-2.3-4.8-5-4.8C31.6,33,29.5,35.1,29.5,37.8z M39.6,32.7c0.1-0.2,0-0.3,0-0.4
	c-2.6-5.2-5.2-10.4-7.9-15.6c-0.4-0.9-1.3-1.1-2.1-0.8c-0.8,0.4-1.1,1.3-0.7,2.2c2,4,4,8,5.9,12c0.1,0.3,0.3,0.5,0.6,0.5
	C37,30.8,38.4,31.6,39.6,32.7z"/>
<path class="st0" d="M57,23.6c0,4.7,0.1,9.3,0.1,14c0,0.3,0,0.5,0,0.8c-0.1,0.6-0.5,0.9-1,0.9c-0.5,0.1-0.9-0.2-1.2-0.7
	c-0.2-0.3-0.1-0.7-0.2-1c-0.1-9.3-0.2-18.5-0.3-27.8c0-0.3,0-0.7,0.1-1c0.2-0.6,0.7-0.8,1.3-0.8c0.6,0.1,0.9,0.4,1,1
	c0.1,0.8,0,1.6,0.1,2.3C57,15.4,57,19.5,57,23.6z"/>
<path class="st0" d="M17.4,11.3c0-2.3,0-4.5-0.1-6.8c0-1,0.4-1.5,1.1-1.5c0.8,0,1.2,0.5,1.3,1.5c0,4.5,0.1,9,0.1,13.6
	c0,0.9-0.4,1.5-1.2,1.5c-0.8,0-1.2-0.5-1.2-1.5C17.4,15.8,17.4,13.5,17.4,11.3z"/>
<path class="st0" d="M65.7,27c0-1.9-0.1-3.8,0-5.7c0-1.1,0.9-1.6,1.7-1.2c0.5,0.3,0.7,0.7,0.7,1.3c0,3.8,0.1,7.6,0.1,11.3
	c0,0.9-0.5,1.4-1.2,1.4c-0.7,0-1.2-0.5-1.2-1.3C65.7,30.8,65.7,28.9,65.7,27z"/>
<path class="st0" d="M46.5,17.1c0,0.9,0,1.8,0,2.7c0,0.8-0.4,1.3-1.2,1.3c-0.7,0-1.2-0.4-1.2-1.2c0-1.9-0.1-3.7-0.1-5.6
	c0-0.7,0.5-1.3,1.2-1.3c0.7,0,1.2,0.5,1.2,1.2C46.5,15.2,46.5,16.1,46.5,17.1z"/>
<path class="st0" d="M56.8,2.8c0,0.3,0,0.7,0,1c0,0.7-0.4,1-1.1,1.1c-0.7,0.1-1.1-0.3-1.3-0.9c-0.2-0.7-0.2-1.5,0-2.2
	c0.1-0.7,0.6-1,1.3-0.9c0.7,0.1,1,0.5,1.1,1.1C56.9,2.2,56.8,2.5,56.8,2.8z"/>
<path class="st0" d="M68,15.5c0,0.4,0,0.8-0.1,1.1c-0.1,0.6-0.6,1-1.2,0.9c-0.7,0-1-0.4-1.1-1.1c-0.1-0.6-0.1-1.2,0-1.8
	c0-0.7,0.4-1.2,1.1-1.2c0.7,0,1.2,0.4,1.3,1.2C68,15,68,15.3,68,15.5C68,15.5,68,15.5,68,15.5z"/>
<path class="st0" d="M46.4,9.9c0,0.8-0.5,1.4-1.2,1.4c-0.7,0-1.2-0.5-1.2-1.3c0-0.8,0.5-1.4,1.2-1.4S46.4,9.1,46.4,9.9z"/>
<path class="st0" d="M11.5,88.5l-2,10.1H8.1L8.5,97c-1,1.2-2.3,1.7-3.9,1.7c-2.3,0-3.6-1.2-3.6-3.3c0-0.4,0-0.7,0.1-1.1l1.1-5.7h1.4
	l-1.1,5.7c-0.1,0.3-0.1,0.6-0.1,0.9c0,1.5,0.8,2.3,2.6,2.3c2.1,0,3.6-1.2,4.1-3.5l1.1-5.4H11.5z"/>
<path class="st0" d="M4.6,99.1c-2.5,0-4-1.4-4-3.7c0-0.4,0-0.8,0.1-1.2l1.2-6.1h2.2l-1.3,6.4c0,0.3-0.1,0.5-0.1,0.7
	C2.8,96.4,3.5,97,5,97c2,0,3.2-1.1,3.6-3.2l1.1-5.8H12L9.8,99H7.6l0.2-0.8C6.9,98.8,5.8,99.1,4.6,99.1z M2.6,88.9l-1.1,5.4
	c-0.1,0.3-0.1,0.7-0.1,1c0,1.9,1.1,2.9,3.2,2.9c1.5,0,2.7-0.5,3.6-1.5l1.1-1.3l-0.5,2.7h0.4l1.9-9.2h-0.5l-1,5.1
	C9,96.5,7.4,97.8,5,97.8c-1.9,0-3-1-3-2.7c0-0.3,0-0.6,0.1-0.8l0-0.1l1.1-5.2L2.6,88.9L2.6,88.9z"/>
<path class="st0" d="M17.4,86.4l-1.1,5.3h7L23,92.9h-7l-1.1,5.7h-1.4l2.7-13.4h9.2l-0.3,1.2L17.4,86.4L17.4,86.4z"/>
<path class="st0" d="M15.3,99H13l2.8-14.2h10.1l-0.4,2.1h-7.8l-0.9,4.4h7l-0.4,2.1h-7L15.3,99z M14,98.1h0.5l1.1-5.7h7l0.1-0.4h-7
	L17,86h7.8l0.1-0.4h-8.3L14,98.1z"/>
<path class="st0" d="M36.2,88.5l-2,10.1h-1.3l0.3-1.6c-0.9,1.1-2.3,1.7-3.9,1.7c-2.6,0-4.4-1.6-4.4-4.3c0-3.4,2.4-6,5.7-6
	c1.9,0,3.2,0.8,3.8,2.2l0.4-2.1L36.2,88.5L36.2,88.5L36.2,88.5z M34,92.7c0-2-1.2-3.1-3.3-3.1c-2.5,0-4.4,2-4.4,4.7
	c0,2,1.2,3.1,3.3,3.1C32.1,97.4,34,95.5,34,92.7z"/>
<path class="st0" d="M29.3,99.1c-2.9,0-4.8-1.9-4.8-4.7c0-3.6,2.6-6.4,6.1-6.4c1.6,0,2.8,0.5,3.6,1.5l0.3-1.4h1.8v0.4l0.4,0v0.4
	h-0.1l-2,10.1h-2.2l0.2-0.9C31.6,98.8,30.5,99.1,29.3,99.1z M30.6,88.8c-3.1,0-5.2,2.3-5.2,5.6c0,2.3,1.6,3.8,4,3.8
	c1.5,0,2.7-0.5,3.6-1.6l1-1.2l-0.5,2.6h0.4l1.9-9.2h-0.5l-0.6,3.1L34,90.8C33.5,89.5,32.3,88.8,30.6,88.8z M29.6,97.8
	C29.6,97.8,29.6,97.8,29.6,97.8c-2.4,0-3.8-1.3-3.8-3.5c0-2.9,2.1-5.1,4.8-5.1c2.3,0,3.7,1.3,3.7,3.6c0,1.5-0.5,2.9-1.5,3.8
	C32,97.4,30.9,97.8,29.6,97.8z M30.7,90c-2.3,0-3.9,1.8-3.9,4.3c0,1.7,1,2.7,2.9,2.7c1.1,0,2-0.4,2.7-1.1c0.8-0.8,1.2-1.9,1.2-3.2
	C33.5,91,32.5,90,30.7,90z"/>
<path class="st0" d="M40.8,84.3h1.4l-2.8,14.2H38L40.8,84.3z"/>
<path class="st0" d="M39.7,99h-2.2l3-15h2.2L39.7,99z M38.5,98.1H39l2.7-13.4h-0.5L38.5,98.1z"/>
<path class="st0" d="M46,84.3h1.4l-2.8,14.2h-1.4L46,84.3z"/>
<path class="st0" d="M44.9,99h-2.2l3-15h2.2L44.9,99z M43.7,98.1h0.5l2.7-13.4h-0.5L43.7,98.1z"/>
<path class="st0" d="M57.8,95h-7.5L48,98.6h-1.5l8.8-13.4h1.4l3.4,13.4h-1.4L57.8,95z M57.5,93.8l-1.8-7.2L51,93.8H57.5z"/>
<path class="st0" d="M60.7,99h-2.3l-0.9-3.6h-6.9L48.2,99h-2.6l9.4-14.2H57L60.7,99z M59,98.1h0.5l-3.2-12.6h-0.5l2.2,8.7h-7.8
	l5.6-8.7h-0.3l-8.3,12.6h0.5l2.3-3.6h8L59,98.1z M51.8,93.4H57l-1.5-5.8L51.8,93.4z"/>
<path class="st0" d="M64.9,84.3h1.4l-2.8,14.2H62L64.9,84.3z"/>
<path class="st0" d="M63.7,99h-2.2l3-15h2.2L63.7,99z M62.5,98.1h0.5l2.7-13.4h-0.5L62.5,98.1z"/>
<path class="st0" d="M68.4,93.9c0,0.1,0,0.3,0,0.4c0,2,1.1,3.1,3.5,3.1c1.3,0,2.5-0.5,3.3-1.3l0.6,1c-0.9,0.9-2.5,1.5-4,1.5
	c-2.9,0-4.7-1.6-4.7-4.3c0-3.4,2.3-5.9,5.6-5.9c2.7,0,4.4,1.6,4.4,4.3c0,0.4-0.1,0.8-0.1,1.2L68.4,93.9L68.4,93.9L68.4,93.9z
	 M68.6,92.9h7.2c0-0.1,0-0.3,0-0.4c0-1.9-1.3-3-3.2-3C70.6,89.5,69.1,90.9,68.6,92.9z"/>
<path class="st0" d="M71.8,99.1c-3.2,0-5.1-1.8-5.1-4.7c0-3.7,2.5-6.4,6-6.4c2.9,0,4.8,1.8,4.8,4.7c0,0.4,0,0.9-0.1,1.3l-0.1,0.3
	h-8.4c0,1.8,1,2.7,3.1,2.7c1.2,0,2.3-0.4,3-1.1l0.4-0.4l1.1,1.7l-0.2,0.2C75.1,98.5,73.4,99.1,71.8,99.1z M72.7,88.8
	c-3,0-5.1,2.3-5.1,5.5c0,2.4,1.6,3.9,4.3,3.9c1.3,0,2.6-0.4,3.5-1.2l-0.2-0.3c-0.8,0.7-2,1-3.2,1c-2.5,0-3.9-1.3-3.9-3.6
	c0-0.1,0-0.3,0-0.5l0.4,0v-0.4h8.1c0-0.3,0.1-0.5,0.1-0.8C76.6,90.3,75.1,88.8,72.7,88.8z M76.1,93.3H68l0.1-0.5
	c0.6-2.3,2.3-3.6,4.4-3.6s3.6,1.3,3.6,3.4c0,0.1,0,0.3,0,0.4L76.1,93.3z M69.2,92.4h6.2c0-1.6-1.1-2.5-2.7-2.5
	C71,90,69.8,90.9,69.2,92.4z"/>
<path class="st0" d="M85.8,88.4l-0.3,1.3c-0.1,0-0.2,0-0.4,0c-2.1,0-3.6,1.2-4.1,3.7l-1,5.1h-1.4l2-10.1h1.3l-0.4,1.8
	C82.6,89,83.9,88.4,85.8,88.4z"/>
<path class="st0" d="M80.5,99h-2.2L80.4,88h2.2L82.4,89c0.9-0.7,2-1,3.4-1h0.5l-0.4,2.1h-0.4c-0.1,0-0.1,0-0.2,0c0,0-0.1,0-0.2,0
	c-2,0-3.2,1.1-3.6,3.4L80.5,99z M79.3,98.1h0.5l0.9-4.8c0.1-0.7,0.3-1.2,0.5-1.7l-0.4,0.5l0.6-3.3h-0.4L79.3,98.1z M85.3,88.8
	c-1.4,0.1-2.5,0.6-3.2,1.6c0.8-0.8,1.8-1.2,3.1-1.2c0,0,0,0,0,0L85.3,88.8z"/>
<path class="st0" d="M88.9,95.5c0,0.2-0.1,0.4-0.1,0.6c0,0.9,0.5,1.3,1.5,1.3c0.5,0,1.1-0.2,1.6-0.5l0.3,1c-0.6,0.5-1.5,0.7-2.2,0.7
	c-1.5,0-2.5-0.9-2.5-2.3c0-0.3,0-0.5,0.1-0.8l1.2-5.9h-1.8l0.2-1.1H89l0.4-2.2h1.4l-0.4,2.2h3.1l-0.2,1.1h-3.1L88.9,95.5z"/>
<path class="st0" d="M89.9,99.1c-1.7,0-2.9-1.1-2.9-2.7c0-0.3,0-0.6,0.1-0.9l1.1-5.4h-1.8l0.4-2h1.8l0.4-2.2h2.2l-0.4,2.2h3.1
	l-0.4,2h-3.1l-1.1,5.5c0,0.1,0,0.1,0,0.2c0,0.1,0,0.2,0,0.3c0,0.4,0.1,0.9,1,0.9c0.5,0,0.9-0.1,1.3-0.4l0.5-0.4l0.6,1.9l-0.2,0.2
	C91.6,98.9,90.6,99.1,89.9,99.1z M87.4,89.2h1.8l-1.3,6.4c0,0.2-0.1,0.5-0.1,0.7c0,1.2,0.8,1.9,2,1.9c0.5,0,1.2-0.1,1.7-0.4
	l-0.1-0.2c-0.4,0.2-0.8,0.3-1.3,0.3c-1.2,0-1.9-0.6-1.9-1.7c0-0.2,0-0.3,0-0.5c0-0.1,0-0.1,0-0.2v0l1.3-6.2h3.1l0.1-0.3h-3.1
	l0.4-2.2h-0.5l-0.4,2.2h-1.8L87.4,89.2z"/>
</svg>
