<svg width="112" height="67" viewBox="0 0 112 67" fill="none" xmlns="http://www.w3.org/2000/svg">
<path d="M80.6788 36.3667L79.0679 40.2417C79.0679 40.2417 63.8728 39.2838 58.0821 20.8234C55.5569 10.8094 60.6945 1.27444 70.8826 0.229506C81.0706 -0.815426 86.2082 7.45695 86.1647 13.8136C86.1212 20.1703 82.5945 25.1773 73.103 26.527C73.103 26.5705 71.4486 30.3148 80.6788 36.3667Z" fill="#E55590"/>
<path d="M38.4017 36.367L40.0126 40.2419C40.0126 40.2419 55.2077 39.2841 60.9983 20.8236C63.5236 10.8097 58.386 1.27467 48.1979 0.22974C38.0098 -0.815192 32.8723 7.50073 32.9158 13.8574C32.9593 20.2141 36.486 25.221 45.9774 26.5707C45.9774 26.5707 47.6319 30.3151 38.4017 36.367Z" fill="#C43D81"/>
<path d="M0.740799 61.0096V55.0448H2.83066V60.8355C2.83066 61.9675 3.26605 62.4464 4.13683 62.4464C5.0076 62.4464 5.70423 61.9675 6.22669 60.879V55.0448H8.31656V64.1009H6.53146L6.44439 62.8382C5.70423 63.8832 4.78991 64.3186 3.61436 64.3186C1.69865 64.3186 0.740799 63.1866 0.740799 61.0096Z" fill="#282828"/>
<path d="M10.8442 55.0448H12.6293L12.7164 56.2639C13.4566 55.2625 14.3273 54.8271 15.5029 54.8271C17.3751 54.8271 18.3329 55.9591 18.3329 58.0925V64.0573H16.2431V58.2667C16.2431 57.1347 15.8077 56.6557 14.9369 56.6557C14.0661 56.6557 13.413 57.1782 12.9341 58.1796V64.0573H10.8442V55.0448Z" fill="#282828"/>
<path d="M21.1596 56.6557H19.6357V55.0448H21.1596V54.2611C21.1596 52.3019 22.0304 51.3875 23.7284 51.3875H25.4699V53.042H24.3815C23.5542 53.042 23.2495 53.3903 23.2495 54.3046V55.0448H25.3829V56.6557H23.2495V64.1009H21.1596V56.6557Z" fill="#282828"/>
<path d="M26.3419 60.3563V58.7889C26.3419 56.1765 27.6916 54.8704 30.3474 54.8704C33.0033 54.8704 34.353 56.1765 34.353 58.7889V60.3563C34.353 62.9686 33.0033 64.2748 30.3474 64.2748C27.6916 64.3183 26.3419 62.9686 26.3419 60.3563ZM32.2631 60.3127V58.8324C32.2631 57.265 31.6536 56.5684 30.3474 56.5684C29.0413 56.5684 28.4317 57.265 28.4317 58.8324V60.3127C28.4317 61.8801 29.0413 62.5768 30.3474 62.5768C31.6971 62.5768 32.2631 61.8801 32.2631 60.3127Z" fill="#282828"/>
<path d="M36.5282 51.3439H38.6181V64.0573H36.5282V51.3439Z" fill="#282828"/>
<path d="M40.751 60.5742V58.5714C40.751 56.1332 41.9265 54.8271 44.0164 54.8271C45.1049 54.8271 45.9321 55.1754 46.5852 55.9591V51.344H48.675V64.0573H46.89L46.8029 62.7947C46.1063 63.7961 45.1919 64.275 43.9729 64.275C41.9265 64.3185 40.751 63.0124 40.751 60.5742ZM46.6287 60.879V58.2666C46.1498 57.1782 45.4096 56.5686 44.4518 56.5686C43.4504 56.5686 42.8844 57.2217 42.8844 58.5714V60.4871C42.8844 61.8368 43.4504 62.4899 44.4953 62.4899C45.4096 62.577 46.1498 61.9674 46.6287 60.879Z" fill="#282828"/>
<path d="M63.1318 63.6653C62.1304 64.0571 60.9548 64.2748 59.5616 64.2748C54.7723 64.2748 52.5083 61.9672 52.5083 57.0909V52.9982C52.5083 48.1654 54.7723 45.8143 59.5616 45.8143C64.3509 45.8143 66.6149 48.1219 66.6149 52.9982V57.0909C66.6149 59.0066 66.2666 60.574 65.5264 61.706L67.5727 63.8394L65.4393 66.0163L63.1318 63.6653ZM61.0419 61.2706L58.2119 58.3971L60.2147 56.3943L63.1318 59.3549C63.3495 58.7454 63.4366 57.9617 63.4366 57.0474V52.9982C63.4366 49.9505 62.3045 48.6008 59.5616 48.6008C56.8186 48.6008 55.6866 49.9505 55.6866 52.9982V57.0474C55.6866 60.0951 56.8186 61.4448 59.5616 61.4448C60.1276 61.4448 60.6065 61.4012 61.0419 61.2706Z" fill="url(#paint0_radial_412_637)"/>
<path d="M69.271 60.8789V54.9141H71.3609V60.7047C71.3609 61.8367 71.7962 62.3157 72.667 62.3157C73.5378 62.3157 74.2344 61.8367 74.7569 60.7483V54.9141H76.8467V63.9701H75.0617L74.9746 62.7075C74.2344 63.7525 73.3201 64.1878 72.1446 64.1878C70.2724 64.1443 69.271 63.0123 69.271 60.8789Z" fill="#282828"/>
<path d="M79.0244 60.1818V58.6144C79.0244 56.0021 80.3741 54.6959 83.03 54.6959C85.6859 54.6959 87.0356 56.0021 87.0356 58.6144V60.1818C87.0356 62.7942 85.6859 64.1003 83.03 64.1003C80.3741 64.1439 79.0244 62.8377 79.0244 60.1818ZM84.9457 60.1383V58.658C84.9457 57.0906 84.3362 56.3939 83.03 56.3939C81.7238 56.3939 81.1143 57.0906 81.1143 58.658V60.1383C81.1143 61.7057 81.7238 62.4023 83.03 62.4023C84.3797 62.4023 84.9457 61.7057 84.9457 60.1383Z" fill="#282828"/>
<path d="M89.4715 61.0529V56.5249H88.0347V54.914H89.515L89.6456 52.6064H91.5613V54.914H93.6077V56.5249H91.5613V61.0094C91.5613 62.0108 91.779 62.272 92.6933 62.272H93.6947V63.97H92.0403C90.2116 63.9265 89.4715 63.0993 89.4715 61.0529Z" fill="#282828"/>
<path d="M94.9141 60.2689V58.5273C94.9141 56.0456 96.3073 54.6959 98.8326 54.6959C101.401 54.6959 102.751 56.0456 102.751 58.5273V60.0077H96.9604V60.2689C96.9604 61.7492 97.5699 62.4023 98.8761 62.4023C99.9646 62.4023 100.574 61.9234 100.661 61.1397H102.664C102.577 63.0554 101.227 64.1003 98.8761 64.1003C96.3073 64.1439 94.9141 62.8377 94.9141 60.2689ZM100.792 58.4838C100.792 57.0035 100.226 56.3939 98.9196 56.3939C97.6135 56.3939 97.0039 57.047 97.0039 58.4838H100.792Z" fill="#282828"/>
<path d="M104.276 61.227H106.279C106.279 62.0977 106.845 62.5331 108.064 62.5331C109.196 62.5331 109.719 62.1848 109.719 61.4882C109.719 60.748 109.196 60.4433 107.629 60.2256C105.321 59.9643 104.451 59.2242 104.451 57.5262C104.451 55.654 105.757 54.6526 108.064 54.6526C110.372 54.6526 111.591 55.6105 111.591 57.4826H109.588C109.588 56.6554 109.109 56.2635 108.064 56.2635C107.063 56.2635 106.54 56.6554 106.54 57.3085C106.54 58.0051 107.063 58.3099 108.543 58.484C110.894 58.7453 111.765 59.5725 111.765 61.2705C111.765 63.1862 110.546 64.1441 108.064 64.1441C105.495 64.1441 104.276 63.1862 104.276 61.227Z" fill="#282828"/>
<defs>
<radialGradient id="paint0_radial_412_637" cx="0" cy="0" r="1" gradientUnits="userSpaceOnUse" gradientTransform="translate(60.0506 55.8992) scale(8.9013)">
<stop offset="1.11884e-07" stop-color="#F6E589"/>
<stop offset="1" stop-color="#5F3B2B"/>
</radialGradient>
</defs>
</svg>
