<svg width="20" height="19" viewBox="0 0 20 19" fill="none" xmlns="http://www.w3.org/2000/svg">
<g filter="url(#filter0_d_659_4763)">
<path d="M12.625 7.75C12.625 8.37891 12.5703 8.95312 12.5156 9.5H7.45703C7.40234 8.95312 7.34766 8.37891 7.34766 7.75C7.34766 7.14844 7.40234 6.57422 7.45703 6H12.5156C12.5703 6.57422 12.625 7.14844 12.625 7.75ZM16.7539 6C16.918 6.57422 17 7.14844 17 7.75C17 8.37891 16.918 8.95312 16.7539 9.5H13.3906C13.4453 8.95312 13.5 8.35156 13.5 7.75C13.5 7.14844 13.4453 6.57422 13.3906 6H16.7539ZM16.4805 5.125H13.2812C13.0078 3.40234 12.4609 1.92578 11.7773 0.996094C13.9102 1.57031 15.6602 3.10156 16.4805 5.125ZM12.4062 5.125H7.56641C7.73047 4.14062 8.00391 3.26562 8.30469 2.55469C8.60547 1.89844 8.90625 1.43359 9.23438 1.13281C9.53516 0.859375 9.78125 0.75 10 0.75C10.1914 0.75 10.4375 0.859375 10.7383 1.13281C11.0664 1.43359 11.3672 1.89844 11.668 2.55469C11.9688 3.26562 12.2422 4.14062 12.4062 5.125ZM3.49219 5.125C4.3125 3.10156 6.0625 1.57031 8.19531 0.996094C7.51172 1.92578 6.96484 3.40234 6.69141 5.125H3.49219ZM6.58203 6C6.52734 6.57422 6.47266 7.14844 6.47266 7.75C6.47266 8.35156 6.52734 8.95312 6.58203 9.5H3.21875C3.05469 8.95312 3 8.37891 3 7.75C3 7.14844 3.05469 6.57422 3.21875 6H6.58203ZM8.30469 12.9727C8.00391 12.2617 7.73047 11.3867 7.56641 10.375H12.4062C12.2422 11.3867 11.9688 12.2617 11.668 12.9727C11.3672 13.6289 11.0664 14.0938 10.7383 14.3945C10.4375 14.668 10.1914 14.75 9.97266 14.75C9.78125 14.75 9.53516 14.668 9.23438 14.3945C8.90625 14.0938 8.60547 13.6289 8.30469 12.9727ZM8.19531 14.5312C6.0625 13.957 4.3125 12.4258 3.49219 10.375H6.69141C6.96484 12.125 7.51172 13.6016 8.19531 14.5312ZM11.7773 14.5312C12.4609 13.6016 13.0078 12.125 13.2812 10.375H16.4805C15.6602 12.4258 13.9102 13.957 11.7773 14.5312Z" fill="#474747"/>
</g>
<defs>
<filter id="filter0_d_659_4763" x="0.304167" y="0.75" width="19.3917" height="19.3917" filterUnits="userSpaceOnUse" color-interpolation-filters="sRGB">
<feFlood flood-opacity="0" result="BackgroundImageFix"/>
<feColorMatrix in="SourceAlpha" type="matrix" values="0 0 0 0 0 0 0 0 0 0 0 0 0 0 0 0 0 0 127 0" result="hardAlpha"/>
<feOffset dy="2.69583"/>
<feGaussianBlur stdDeviation="1.34792"/>
<feComposite in2="hardAlpha" operator="out"/>
<feColorMatrix type="matrix" values="0 0 0 0 0 0 0 0 0 0 0 0 0 0 0 0 0 0 0.25 0"/>
<feBlend mode="normal" in2="BackgroundImageFix" result="effect1_dropShadow_659_4763"/>
<feBlend mode="normal" in="SourceGraphic" in2="effect1_dropShadow_659_4763" result="shape"/>
</filter>
</defs>
</svg>
