<svg width="13" height="16" viewBox="0 0 13 16" fill="none" xmlns="http://www.w3.org/2000/svg">
<path d="M4.0032 0.000560779C3.95371 0.00182076 3.90547 0.017971 3.86364 0.0472807C3.82181 0.0765904 3.78797 0.117955 3.76575 0.16694C3.74352 0.215925 3.73375 0.270685 3.73749 0.325351C3.74122 0.380017 3.75831 0.432527 3.78693 0.477255L4.59339 1.7681C3.81907 2.42533 3.27673 3.40167 3.13175 4.52207H10.6808C10.5358 3.40167 9.99343 2.42533 9.2191 1.7681L10.0256 0.477255C10.0546 0.431874 10.0717 0.3785 10.0751 0.323015C10.0785 0.26753 10.068 0.212087 10.0448 0.162793C10.0215 0.1135 9.98643 0.072269 9.94339 0.043644C9.90034 0.0150189 9.85099 0.00011039 9.80078 0.000560779C9.75652 0.00101219 9.71303 0.0133867 9.67405 0.0366162C9.63507 0.0598456 9.60178 0.093232 9.57706 0.133894L8.7642 1.43654C8.21439 1.0953 7.58196 0.897312 6.90625 0.897312C6.23054 0.897312 5.59811 1.0953 5.0483 1.43654L4.23544 0.133894C4.20992 0.0918959 4.17527 0.0576761 4.13469 0.0343783C4.09411 0.0110805 4.04889 -0.000548168 4.0032 0.000560779ZM5.26989 2.10557C5.57098 2.10557 5.81534 2.37622 5.81534 2.70969C5.81534 3.04317 5.57098 3.31382 5.26989 3.31382C4.9688 3.31382 4.72443 3.04317 4.72443 2.70969C4.72443 2.37622 4.9688 2.10557 5.26989 2.10557ZM8.54261 2.10557C8.8437 2.10557 9.08807 2.37622 9.08807 2.70969C9.08807 3.04317 8.8437 3.31382 8.54261 3.31382C8.24152 3.31382 7.99716 3.04317 7.99716 2.70969C7.99716 2.37622 8.24152 2.10557 8.54261 2.10557ZM1.4517 5.73033C1.15061 5.73033 0.90625 6.00098 0.90625 6.33446V11.1675C0.90625 11.501 1.15061 11.7716 1.4517 11.7716C1.7528 11.7716 1.99716 11.501 1.99716 11.1675V6.33446C1.99716 6.00098 1.7528 5.73033 1.4517 5.73033ZM3.08807 5.73033V11.7716C3.08807 12.4392 3.57625 12.9799 4.17898 12.9799V15.0943C4.17898 15.5945 4.54552 16.0005 4.99716 16.0005C5.4488 16.0005 5.81534 15.5945 5.81534 15.0943V12.9799H7.99716V15.0943C7.99716 15.5945 8.3637 16.0005 8.81534 16.0005C9.26698 16.0005 9.63352 15.5945 9.63352 15.0943V12.9799C10.2362 12.9799 10.7244 12.4392 10.7244 11.7716V5.73033H3.08807ZM12.3608 5.73033C12.0597 5.73033 11.8153 6.00098 11.8153 6.33446V11.1675C11.8153 11.501 12.0597 11.7716 12.3608 11.7716C12.6619 11.7716 12.9062 11.501 12.9062 11.1675V6.33446C12.9062 6.00098 12.6619 5.73033 12.3608 5.73033Z" fill="black"/>
</svg>
