<svg width="212" height="63" viewBox="0 0 212 63" fill="none" xmlns="http://www.w3.org/2000/svg">
<path d="M38.0678 50.83H10.3675L10.3675 22.9218C10.3675 20.3585 12.4526 18.2734 15.0159 18.2734L43.83 18.2734V45.0678C43.83 48.2504 41.2503 50.83 38.0678 50.83Z" fill="url(#paint0_linear_1246_3547)"/>
<path d="M43.83 16.0458V12.7622C43.83 9.57963 41.2504 7 38.0678 7L5.76222 7C2.57964 7 1.55124e-06 9.57963 1.41212e-06 12.7622L0 45.0678C-1.39115e-07 48.2504 2.57963 50.83 5.76222 50.83H8.13988L8.13988 22.9218C8.13988 22.6849 8.15193 22.4507 8.17545 22.2198C8.52822 18.7568 11.4614 16.0458 15.0159 16.0458L43.83 16.0458Z" fill="url(#paint1_linear_1246_3547)"/>
<path d="M10.3675 24.0342L10.3675 56.3398C10.3675 59.5223 12.9471 62.102 16.1297 62.102H48.4353C51.6179 62.102 54.1975 59.5224 54.1975 56.3398V24.0342C54.1975 20.8516 51.6179 18.272 48.4353 18.272L16.1297 18.272C12.9471 18.2735 10.3675 20.8531 10.3675 24.0342Z" fill="url(#paint2_linear_1246_3547)"/>
<mask id="mask0_1246_3547" style="mask-type:alpha" maskUnits="userSpaceOnUse" x="10" y="18" width="44" height="45">
<rect x="10" y="18" width="44" height="45" rx="6" fill="url(#paint3_linear_1246_3547)"/>
</mask>
<g mask="url(#mask0_1246_3547)">
<path d="M38.0678 50.83H10.3675L10.3675 22.9218C10.3675 20.3585 12.4526 18.2734 15.0159 18.2734L43.83 18.2734V45.0678C43.83 48.2504 41.2503 50.83 38.0678 50.83Z" fill="url(#paint4_linear_1246_3547)"/>
<path d="M43.83 16.0458V12.7622C43.83 9.57963 41.2504 7 38.0678 7L5.76222 7C2.57964 7 1.55124e-06 9.57963 1.41212e-06 12.7622L0 45.0678C-1.39115e-07 48.2504 2.57963 50.83 5.76222 50.83H8.13988L8.13988 22.9218C8.13988 22.6849 8.15193 22.4507 8.17545 22.2198C8.52822 18.7568 11.4614 16.0458 15.0159 16.0458L43.83 16.0458Z" fill="url(#paint5_linear_1246_3547)"/>
<path d="M10.3675 24.0342L10.3675 56.3398C10.3675 59.5223 12.9471 62.102 16.1297 62.102H48.4353C51.6179 62.102 54.1975 59.5224 54.1975 56.3398V24.0342C54.1975 20.8516 51.6179 18.272 48.4353 18.272L16.1297 18.272C12.9471 18.2735 10.3675 20.8531 10.3675 24.0342Z" fill="url(#paint6_linear_1246_3547)"/>
<g filter="url(#filter0_d_1246_3547)">
<path d="M43.6207 27.3406C42.6339 27.3406 41.8664 28.1629 41.8664 29.0949V33.2065C39.6736 30.1365 36.1102 28.2177 32.2179 28.2177C27.0098 28.2177 22.4597 31.5618 20.8698 36.4958C20.5957 37.4277 21.0891 38.4145 22.0211 38.6886C22.9531 38.9627 23.9398 38.4693 24.2139 37.5374C25.3104 34.0836 28.5448 31.7263 32.2179 31.7263C34.9589 31.7263 37.4807 33.0968 39.0157 35.2349H36.6036C35.6168 35.2349 34.8493 36.0572 34.8493 36.9892C34.8493 37.9759 35.6168 38.7434 36.6036 38.7434H43.6207C44.5527 38.7434 45.375 37.9759 45.375 36.9892V29.0949C45.375 28.1629 44.5527 27.3406 43.6207 27.3406ZM42.3598 42.3617C41.4279 42.0876 40.4411 42.5809 40.167 43.5129C39.0705 46.9667 35.8361 49.2692 32.2179 49.2692C29.422 49.2692 26.9002 47.9534 25.3652 45.7606H27.8322C28.7641 45.7606 29.5864 44.9931 29.5864 44.0063C29.5864 43.0743 28.7641 42.252 27.8322 42.252H20.815C19.8282 42.252 19.0607 43.0743 19.0607 44.0063V51.9006C19.0607 52.8874 19.8282 53.6549 20.815 53.6549C21.747 53.6549 22.5693 52.8874 22.5693 51.9006V47.8438C24.7073 50.9138 28.2707 52.7777 32.163 52.7777C37.3163 52.7777 41.8664 49.4884 43.4563 44.5545C43.7852 43.6225 43.2918 42.6358 42.3598 42.3617Z" fill="white"/>
</g>
</g>
<path d="M80.6353 22.592H73.6513L72.4513 26H69.5953L75.5713 9.296H78.7393L84.7153 26H81.8353L80.6353 22.592ZM79.8673 20.36L77.1553 12.608L74.4193 20.36H79.8673ZM90.0497 14.72C90.5137 14.112 91.1457 13.6 91.9457 13.184C92.7457 12.768 93.6497 12.56 94.6577 12.56C95.8097 12.56 96.8577 12.848 97.8017 13.424C98.7617 13.984 99.5137 14.776 100.058 15.8C100.602 16.824 100.874 18 100.874 19.328C100.874 20.656 100.602 21.848 100.058 22.904C99.5137 23.944 98.7617 24.76 97.8017 25.352C96.8577 25.928 95.8097 26.216 94.6577 26.216C93.6497 26.216 92.7537 26.016 91.9697 25.616C91.1857 25.2 90.5457 24.688 90.0497 24.08V32.288H87.3137V12.776H90.0497V14.72ZM98.0897 19.328C98.0897 18.416 97.8977 17.632 97.5137 16.976C97.1457 16.304 96.6497 15.8 96.0257 15.464C95.4177 15.112 94.7617 14.936 94.0577 14.936C93.3697 14.936 92.7137 15.112 92.0897 15.464C91.4817 15.816 90.9857 16.328 90.6017 17C90.2337 17.672 90.0497 18.464 90.0497 19.376C90.0497 20.288 90.2337 21.088 90.6017 21.776C90.9857 22.448 91.4817 22.96 92.0897 23.312C92.7137 23.664 93.3697 23.84 94.0577 23.84C94.7617 23.84 95.4177 23.664 96.0257 23.312C96.6497 22.944 97.1457 22.416 97.5137 21.728C97.8977 21.04 98.0897 20.24 98.0897 19.328ZM106.315 14.72C106.779 14.112 107.411 13.6 108.211 13.184C109.011 12.768 109.915 12.56 110.923 12.56C112.075 12.56 113.123 12.848 114.067 13.424C115.027 13.984 115.779 14.776 116.323 15.8C116.867 16.824 117.139 18 117.139 19.328C117.139 20.656 116.867 21.848 116.323 22.904C115.779 23.944 115.027 24.76 114.067 25.352C113.123 25.928 112.075 26.216 110.923 26.216C109.915 26.216 109.019 26.016 108.235 25.616C107.451 25.2 106.811 24.688 106.315 24.08V32.288H103.579V12.776H106.315V14.72ZM114.355 19.328C114.355 18.416 114.163 17.632 113.779 16.976C113.411 16.304 112.915 15.8 112.291 15.464C111.683 15.112 111.027 14.936 110.323 14.936C109.635 14.936 108.979 15.112 108.355 15.464C107.747 15.816 107.251 16.328 106.867 17C106.499 17.672 106.315 18.464 106.315 19.376C106.315 20.288 106.499 21.088 106.867 21.776C107.251 22.448 107.747 22.96 108.355 23.312C108.979 23.664 109.635 23.84 110.323 23.84C111.027 23.84 111.683 23.664 112.291 23.312C112.915 22.944 113.411 22.416 113.779 21.728C114.163 21.04 114.355 20.24 114.355 19.328ZM118.933 17.624C118.933 15.992 119.309 14.528 120.061 13.232C120.829 11.936 121.861 10.928 123.157 10.208C124.469 9.472 125.901 9.104 127.453 9.104C129.229 9.104 130.805 9.544 132.181 10.424C133.573 11.288 134.581 12.52 135.205 14.12H131.917C131.485 13.24 130.885 12.584 130.117 12.152C129.349 11.72 128.461 11.504 127.453 11.504C126.349 11.504 125.365 11.752 124.501 12.248C123.637 12.744 122.957 13.456 122.461 14.384C121.981 15.312 121.741 16.392 121.741 17.624C121.741 18.856 121.981 19.936 122.461 20.864C122.957 21.792 123.637 22.512 124.501 23.024C125.365 23.52 126.349 23.768 127.453 23.768C128.461 23.768 129.349 23.552 130.117 23.12C130.885 22.688 131.485 22.032 131.917 21.152H135.205C134.581 22.752 133.573 23.984 132.181 24.848C130.805 25.712 129.229 26.144 127.453 26.144C125.885 26.144 124.453 25.784 123.157 25.064C121.861 24.328 120.829 23.312 120.061 22.016C119.309 20.72 118.933 19.256 118.933 17.624ZM150.383 12.776V26H147.647V24.44C147.215 24.984 146.647 25.416 145.943 25.736C145.255 26.04 144.519 26.192 143.735 26.192C142.695 26.192 141.759 25.976 140.927 25.544C140.111 25.112 139.463 24.472 138.983 23.624C138.519 22.776 138.287 21.752 138.287 20.552V12.776H140.999V20.144C140.999 21.328 141.295 22.24 141.887 22.88C142.479 23.504 143.287 23.816 144.311 23.816C145.335 23.816 146.143 23.504 146.735 22.88C147.343 22.24 147.647 21.328 147.647 20.144V12.776H150.383ZM156.729 14.696C157.129 14.024 157.657 13.504 158.313 13.136C158.985 12.752 159.777 12.56 160.689 12.56V15.392H159.993C158.921 15.392 158.105 15.664 157.545 16.208C157.001 16.752 156.729 17.696 156.729 19.04V26H153.993V12.776H156.729V14.696ZM162.292 19.328C162.292 18 162.564 16.824 163.108 15.8C163.668 14.776 164.42 13.984 165.364 13.424C166.324 12.848 167.38 12.56 168.532 12.56C169.572 12.56 170.476 12.768 171.244 13.184C172.028 13.584 172.652 14.088 173.116 14.696V12.776H175.876V26H173.116V24.032C172.652 24.656 172.02 25.176 171.22 25.592C170.42 26.008 169.508 26.216 168.484 26.216C167.348 26.216 166.308 25.928 165.364 25.352C164.42 24.76 163.668 23.944 163.108 22.904C162.564 21.848 162.292 20.656 162.292 19.328ZM173.116 19.376C173.116 18.464 172.924 17.672 172.54 17C172.172 16.328 171.684 15.816 171.076 15.464C170.468 15.112 169.812 14.936 169.108 14.936C168.404 14.936 167.748 15.112 167.14 15.464C166.532 15.8 166.036 16.304 165.652 16.976C165.284 17.632 165.1 18.416 165.1 19.328C165.1 20.24 165.284 21.04 165.652 21.728C166.036 22.416 166.532 22.944 167.14 23.312C167.764 23.664 168.42 23.84 169.108 23.84C169.812 23.84 170.468 23.664 171.076 23.312C171.684 22.96 172.172 22.448 172.54 21.776C172.924 21.088 173.116 20.288 173.116 19.376ZM182.662 15.008V22.328C182.662 22.824 182.774 23.184 182.998 23.408C183.238 23.616 183.638 23.72 184.198 23.72H185.878V26H183.718C182.486 26 181.542 25.712 180.886 25.136C180.23 24.56 179.902 23.624 179.902 22.328V15.008H178.342V12.776H179.902V9.488H182.662V12.776H185.878V15.008H182.662ZM194.136 26.216C192.888 26.216 191.76 25.936 190.752 25.376C189.744 24.8 188.952 24 188.376 22.976C187.8 21.936 187.512 20.736 187.512 19.376C187.512 18.032 187.808 16.84 188.4 15.8C188.992 14.76 189.8 13.96 190.824 13.4C191.848 12.84 192.992 12.56 194.256 12.56C195.52 12.56 196.664 12.84 197.688 13.4C198.712 13.96 199.52 14.76 200.112 15.8C200.704 16.84 201 18.032 201 19.376C201 20.72 200.696 21.912 200.088 22.952C199.48 23.992 198.648 24.8 197.592 25.376C196.552 25.936 195.4 26.216 194.136 26.216ZM194.136 23.84C194.84 23.84 195.496 23.672 196.104 23.336C196.728 23 197.232 22.496 197.616 21.824C198 21.152 198.192 20.336 198.192 19.376C198.192 18.416 198.008 17.608 197.64 16.952C197.272 16.28 196.784 15.776 196.176 15.44C195.568 15.104 194.912 14.936 194.208 14.936C193.504 14.936 192.848 15.104 192.24 15.44C191.648 15.776 191.176 16.28 190.824 16.952C190.472 17.608 190.296 18.416 190.296 19.376C190.296 20.8 190.656 21.904 191.376 22.688C192.112 23.456 193.032 23.84 194.136 23.84ZM206.44 14.696C206.84 14.024 207.368 13.504 208.024 13.136C208.696 12.752 209.488 12.56 210.4 12.56V15.392H209.704C208.632 15.392 207.816 15.664 207.256 16.208C206.712 16.752 206.44 17.696 206.44 19.04V26H203.704V12.776H206.44V14.696Z" fill="white"/>
<rect x="164" y="41" width="48" height="21" rx="8" fill="white"/>
<path d="M176.705 51.645C177.265 51.745 177.74 52.04 178.13 52.53C178.52 53.02 178.715 53.575 178.715 54.195C178.715 54.725 178.575 55.205 178.295 55.635C178.025 56.055 177.63 56.39 177.11 56.64C176.59 56.88 175.985 57 175.295 57H171.125V46.575H175.1C175.81 46.575 176.42 46.695 176.93 46.935C177.44 47.175 177.825 47.5 178.085 47.91C178.345 48.31 178.475 48.76 178.475 49.26C178.475 49.86 178.315 50.36 177.995 50.76C177.675 51.16 177.245 51.455 176.705 51.645ZM172.835 50.955H174.95C175.51 50.955 175.945 50.83 176.255 50.58C176.575 50.32 176.735 49.95 176.735 49.47C176.735 49 176.575 48.635 176.255 48.375C175.945 48.105 175.51 47.97 174.95 47.97H172.835V50.955ZM175.145 55.605C175.725 55.605 176.18 55.465 176.51 55.185C176.84 54.905 177.005 54.515 177.005 54.015C177.005 53.505 176.83 53.1 176.48 52.8C176.13 52.5 175.665 52.35 175.085 52.35H172.835V55.605H175.145ZM182.283 47.955V51.015H185.883V52.41H182.283V55.605H186.333V57H180.573V46.56H186.333V47.955H182.283ZM195.174 46.575V47.97H192.399V57H190.689V47.97H187.899V46.575H195.174ZM203.191 54.87H198.826L198.076 57H196.291L200.026 46.56H202.006L205.741 57H203.941L203.191 54.87ZM202.711 53.475L201.016 48.63L199.306 53.475H202.711Z" fill="url(#paint7_linear_1246_3547)"/>
<defs>
<filter id="filter0_d_1246_3547" x="18.0987" y="27.3406" width="28.2381" height="28.2378" filterUnits="userSpaceOnUse" color-interpolation-filters="sRGB">
<feFlood flood-opacity="0" result="BackgroundImageFix"/>
<feColorMatrix in="SourceAlpha" type="matrix" values="0 0 0 0 0 0 0 0 0 0 0 0 0 0 0 0 0 0 127 0" result="hardAlpha"/>
<feOffset dy="0.961808"/>
<feGaussianBlur stdDeviation="0.480904"/>
<feComposite in2="hardAlpha" operator="out"/>
<feColorMatrix type="matrix" values="0 0 0 0 0 0 0 0 0 0 0 0 0 0 0 0 0 0 0.25 0"/>
<feBlend mode="normal" in2="BackgroundImageFix" result="effect1_dropShadow_1246_3547"/>
<feBlend mode="normal" in="SourceGraphic" in2="effect1_dropShadow_1246_3547" result="shape"/>
</filter>
<linearGradient id="paint0_linear_1246_3547" x1="0" y1="34.551" x2="54.1975" y2="34.551" gradientUnits="userSpaceOnUse">
<stop stop-color="#FF512F"/>
<stop offset="1" stop-color="#DD2476"/>
</linearGradient>
<linearGradient id="paint1_linear_1246_3547" x1="0" y1="34.551" x2="54.1975" y2="34.551" gradientUnits="userSpaceOnUse">
<stop stop-color="#FF512F"/>
<stop offset="1" stop-color="#DD2476"/>
</linearGradient>
<linearGradient id="paint2_linear_1246_3547" x1="0" y1="34.551" x2="54.1975" y2="34.551" gradientUnits="userSpaceOnUse">
<stop stop-color="#FF512F"/>
<stop offset="1" stop-color="#DD2476"/>
</linearGradient>
<linearGradient id="paint3_linear_1246_3547" x1="10" y1="40.5" x2="54" y2="40.5" gradientUnits="userSpaceOnUse">
<stop stop-color="#FF512F"/>
<stop offset="1" stop-color="#DD2476"/>
</linearGradient>
<linearGradient id="paint4_linear_1246_3547" x1="68" y1="75" x2="17" y2="24" gradientUnits="userSpaceOnUse">
<stop stop-color="#E65C00"/>
<stop offset="1" stop-color="#F9D423"/>
</linearGradient>
<linearGradient id="paint5_linear_1246_3547" x1="68" y1="75" x2="17" y2="24" gradientUnits="userSpaceOnUse">
<stop stop-color="#E65C00"/>
<stop offset="1" stop-color="#F9D423"/>
</linearGradient>
<linearGradient id="paint6_linear_1246_3547" x1="68" y1="75" x2="17" y2="24" gradientUnits="userSpaceOnUse">
<stop stop-color="#E65C00"/>
<stop offset="1" stop-color="#F9D423"/>
</linearGradient>
<linearGradient id="paint7_linear_1246_3547" x1="188.464" y1="40" x2="188.464" y2="63" gradientUnits="userSpaceOnUse">
<stop stop-color="#F13F4B"/>
<stop offset="1" stop-color="#F9D423"/>
</linearGradient>
</defs>
</svg>
