<svg width="15" height="15" viewBox="0 0 15 15" fill="none" xmlns="http://www.w3.org/2000/svg">
<g clip-path="url(#clip0_905_3615)">
<path d="M8.62236 0.979243L7.87914 0.236023C7.56445 -0.0786743 7.05557 -0.0786743 6.74422 0.236023L0.235998 6.74088C-0.0787017 7.05558 -0.0787017 7.56445 0.235998 7.8758L6.74422 14.384C7.05892 14.6987 7.56779 14.6987 7.87914 14.384L8.62236 13.6408C8.94041 13.3227 8.93371 12.8038 8.60897 12.4925L4.5748 8.64915H14.1965C14.6418 8.64915 15 8.29093 15 7.84567V6.77436C15 6.32909 14.6418 5.97087 14.1965 5.97087H4.5748L8.60897 2.12755C8.93706 1.8162 8.94376 1.29729 8.62236 0.979243Z" fill="#020041"/>
</g>
<defs>
<clipPath id="clip0_905_3615">
<rect width="15" height="15" fill="white" transform="matrix(-1 0 0 1 15 0)"/>
</clipPath>
</defs>
</svg>
