<svg width="18" height="11" viewBox="0 0 18 11" fill="none" xmlns="http://www.w3.org/2000/svg">
<g filter="url(#filter0_i_706_21320)">
<path d="M9 8.375C8.53516 8.375 8.07031 8.23828 7.6875 7.9375L2 3.50781V9.6875C2 10.4258 2.57422 11 3.3125 11H14.6875C15.3984 11 16 10.4258 16 9.6875V3.50781L10.2852 7.9375C9.9023 8.23828 9.4375 8.375 9 8.375ZM2.4375 2.74219L8.23438 7.25391C8.67188 7.58203 9.3008 7.58203 9.7383 7.25391L15.5352 2.74219C15.8086 2.52344 16 2.16797 16 1.8125C16 1.10156 15.3984 0.5 14.6875 0.5H3.3125C2.57422 0.5 2 1.10156 2 1.8125C2 2.16797 2.16406 2.52344 2.4375 2.74219Z" fill="#474747"/>
</g>
<defs>
<filter id="filter0_i_706_21320" x="2" y="0.5" width="14" height="11.5" filterUnits="userSpaceOnUse" color-interpolation-filters="sRGB">
<feFlood flood-opacity="0" result="BackgroundImageFix"/>
<feBlend mode="normal" in="SourceGraphic" in2="BackgroundImageFix" result="shape"/>
<feColorMatrix in="SourceAlpha" type="matrix" values="0 0 0 0 0 0 0 0 0 0 0 0 0 0 0 0 0 0 127 0" result="hardAlpha"/>
<feOffset dy="8.7"/>
<feGaussianBlur stdDeviation="0.5"/>
<feComposite in2="hardAlpha" operator="arithmetic" k2="-1" k3="1"/>
<feColorMatrix type="matrix" values="0 0 0 0 0 0 0 0 0 0 0 0 0 0 0 0 0 0 0.25 0"/>
<feBlend mode="normal" in2="shape" result="effect1_innerShadow_706_21320"/>
</filter>
</defs>
</svg>
