<svg width="20" height="19" viewBox="0 0 20 19" fill="none" xmlns="http://www.w3.org/2000/svg">
<path d="M19.9999 8.88624V8.24666C19.9718 8.11709 19.9465 7.98648 19.9149 7.86001C19.7388 7.1572 19.4556 6.6161 19.1269 6.15481C18.5077 5.27889 17.8807 4.42784 17.2694 3.53948C16.7127 2.73301 16.174 1.88093 15.6224 1.06409C15.0854 0.267982 14.5337 0.201639 13.9877 0.846402C13.3736 1.57202 13.0201 3.18807 13.8419 4.41748C14.1898 4.93577 14.5349 5.46651 14.8805 5.99207C15.0279 6.21597 15.1749 6.44195 15.3555 6.71768C15.2627 6.72598 15.2193 6.73427 15.1754 6.73323C12.2169 6.69868 9.25852 6.66413 6.30035 6.62957C4.62914 6.60573 2.95848 6.55494 1.28727 6.5311C0.706927 6.52488 0.292078 7.05147 0.105199 7.97611C0.0465237 8.26794 0.0175207 8.57716 0.0196395 8.88832L19.9999 8.88624Z" fill="#D1D1D1"/>
<path d="M0 9.93335V10.5729C0.0281444 10.7015 0.0562888 10.8331 0.084996 10.9585C0.260617 11.6613 0.544312 12.2024 0.873039 12.6637C1.49222 13.5407 2.11983 14.3907 2.73057 15.279C3.28726 16.0865 3.82538 16.9376 4.37701 17.7554C4.91345 18.5505 5.46676 18.6189 6.01277 17.9721C6.62688 17.2465 6.98037 15.6304 6.15855 14.401C5.81013 13.8827 5.46564 13.352 5.11946 12.8265C4.97199 12.6026 4.82564 12.3766 4.64495 12.1009C4.73782 12.0926 4.78117 12.0853 4.82451 12.0853C7.78305 12.1199 10.7416 12.1544 13.7001 12.189C15.3713 12.2118 17.042 12.2626 18.7132 12.2864C19.2935 12.2947 19.7084 11.7681 19.8953 10.8435C19.9541 10.5524 19.9837 10.244 19.9825 9.93335H0Z" fill="#D1D1D1"/>
</svg>
