<svg width="13" height="15" viewBox="0 0 13 15" fill="none" xmlns="http://www.w3.org/2000/svg">
<path d="M10.086 7.59938C10.086 6.43852 10.6194 5.5914 11.6548 4.93253C11.0587 4.08541 10.1802 3.64617 9.0193 3.55204C7.88981 3.45792 6.66619 4.17954 6.22695 4.17954C5.75633 4.17954 4.68959 3.58342 3.84247 3.58342C2.08548 3.61479 0.234375 4.96391 0.234375 7.75626C0.234375 8.572 0.359874 9.41912 0.673621 10.2976C1.08149 11.4585 2.52473 14.2822 4.03072 14.2195C4.81509 14.2195 5.37983 13.6547 6.4152 13.6547C7.41919 13.6547 7.92118 14.2195 8.79967 14.2195C10.337 14.2195 11.6548 11.6467 12.0313 10.4859C9.99191 9.51324 10.086 7.66213 10.086 7.59938ZM8.32905 2.45393C9.17617 1.44994 9.08205 0.508696 9.08205 0.163574C8.32905 0.226324 7.45056 0.696944 6.94857 1.26169C6.38382 1.88918 6.07007 2.67355 6.13282 3.52067C6.94857 3.58342 7.70156 3.17555 8.32905 2.45393Z" fill="black"/>
</svg>
