<svg width="106" height="37" viewBox="0 0 106 37" fill="none" xmlns="http://www.w3.org/2000/svg">
<path d="M24.3697 28.9208H6.63694L6.63694 11.0549C6.63694 9.41401 7.97175 8.0792 9.61269 8.0792L28.0585 8.0792V25.2321C28.0585 27.2694 26.4071 28.9208 24.3697 28.9208Z" fill="#9A9EA6"/>
<path d="M28.0585 6.65313V4.55109C28.0585 2.5137 26.4071 0.862306 24.3698 0.862306L3.68879 0.862305C1.6514 0.862305 9.93051e-07 2.5137 9.03994e-07 4.55109L0 25.2321C-8.9057e-08 27.2694 1.6514 28.9208 3.68878 28.9208H5.21089L5.21089 11.055C5.21089 10.9033 5.2186 10.7533 5.23366 10.6055C5.45948 8.38865 7.33723 6.65313 9.61271 6.65313L28.0585 6.65313Z" fill="#9A9EA6"/>
<path d="M6.63693 11.767L6.63693 32.448C6.63693 34.4854 8.28833 36.1368 10.3257 36.1368H31.0067C33.0441 36.1368 34.6955 34.4854 34.6955 32.448V11.767C34.6955 9.72965 33.0441 8.07825 31.0067 8.07825L10.3257 8.07825C8.28833 8.0792 6.63693 9.7306 6.63693 11.767Z" fill="#9A9EA6"/>
<g filter="url(#filter0_d_1247_3633)">
<path d="M27.9246 13.8791C27.2929 13.8791 26.8016 14.4055 26.8016 15.0021V17.6342C25.3978 15.6689 23.1166 14.4406 20.6249 14.4406C17.2909 14.4406 14.378 16.5814 13.3603 19.7399C13.1848 20.3365 13.5007 20.9682 14.0973 21.1437C14.6939 21.3192 15.3256 21.0033 15.5011 20.4067C16.203 18.1957 18.2736 16.6866 20.6249 16.6866C22.3797 16.6866 23.994 17.564 24.9767 18.9327H23.4325C22.8008 18.9327 22.3095 19.4591 22.3095 20.0558C22.3095 20.6875 22.8008 21.1788 23.4325 21.1788H27.9246C28.5213 21.1788 29.0477 20.6875 29.0477 20.0558V15.0021C29.0477 14.4055 28.5213 13.8791 27.9246 13.8791ZM27.1175 23.4951C26.5208 23.3196 25.8891 23.6354 25.7137 24.232C25.0118 26.443 22.9412 27.917 20.6249 27.917C18.8351 27.917 17.2207 27.0747 16.2381 25.6709H17.8173C18.4139 25.6709 18.9404 25.1796 18.9404 24.5479C18.9404 23.9513 18.4139 23.4249 17.8173 23.4249H13.3252C12.6935 23.4249 12.2021 23.9513 12.2021 24.5479V29.6016C12.2021 30.2333 12.6935 30.7246 13.3252 30.7246C13.9218 30.7246 14.4482 30.2333 14.4482 29.6016V27.0045C15.8169 28.9698 18.0981 30.1631 20.5898 30.1631C23.8887 30.1631 26.8016 28.0574 27.8194 24.8988C28.0299 24.3022 27.7141 23.6705 27.1175 23.4951Z" fill="white"/>
</g>
<path d="M49.0892 9.54554H46.1086L45.5964 11H44.3775L46.928 3.8711H48.28L50.8304 11H49.6013L49.0892 9.54554ZM48.7614 8.59297L47.604 5.28459L46.4363 8.59297H48.7614ZM53.107 6.18594C53.3051 5.92646 53.5748 5.70795 53.9162 5.53041C54.2576 5.35287 54.6434 5.2641 55.0736 5.2641C55.5653 5.2641 56.0125 5.38701 56.4154 5.63284C56.8251 5.87183 57.1461 6.20984 57.3782 6.64686C57.6104 7.08388 57.7265 7.58577 57.7265 8.15254C57.7265 8.7193 57.6104 9.22802 57.3782 9.67869C57.1461 10.1225 56.8251 10.4708 56.4154 10.7234C56.0125 10.9693 55.5653 11.0922 55.0736 11.0922C54.6434 11.0922 54.261 11.0068 53.9264 10.8361C53.5919 10.6586 53.3187 10.4401 53.107 10.1806V13.6836H51.9394V5.35628H53.107V6.18594ZM56.5383 8.15254C56.5383 7.76331 56.4564 7.42872 56.2925 7.14875C56.1354 6.86196 55.9238 6.64686 55.6575 6.50346C55.398 6.35324 55.118 6.27813 54.8176 6.27813C54.5239 6.27813 54.244 6.35324 53.9777 6.50346C53.7182 6.65369 53.5065 6.8722 53.3426 7.159C53.1856 7.44579 53.107 7.7838 53.107 8.17302C53.107 8.56224 53.1856 8.90367 53.3426 9.19729C53.5065 9.48408 53.7182 9.70259 53.9777 9.85282C54.244 10.003 54.5239 10.0782 54.8176 10.0782C55.118 10.0782 55.398 10.003 55.6575 9.85282C55.9238 9.69577 56.1354 9.47043 56.2925 9.1768C56.4564 8.88318 56.5383 8.54176 56.5383 8.15254ZM60.0488 6.18594C60.2469 5.92646 60.5166 5.70795 60.858 5.53041C61.1994 5.35287 61.5852 5.2641 62.0154 5.2641C62.5071 5.2641 62.9544 5.38701 63.3572 5.63284C63.7669 5.87183 64.0879 6.20984 64.32 6.64686C64.5522 7.08388 64.6683 7.58577 64.6683 8.15254C64.6683 8.7193 64.5522 9.22802 64.32 9.67869C64.0879 10.1225 63.7669 10.4708 63.3572 10.7234C62.9544 10.9693 62.5071 11.0922 62.0154 11.0922C61.5852 11.0922 61.2029 11.0068 60.8683 10.8361C60.5337 10.6586 60.2605 10.4401 60.0488 10.1806V13.6836H58.8812V5.35628H60.0488V6.18594ZM63.4801 8.15254C63.4801 7.76331 63.3982 7.42872 63.2343 7.14875C63.0773 6.86196 62.8656 6.64686 62.5993 6.50346C62.3398 6.35324 62.0598 6.27813 61.7594 6.27813C61.4657 6.27813 61.1858 6.35324 60.9195 6.50346C60.66 6.65369 60.4483 6.8722 60.2844 7.159C60.1274 7.44579 60.0488 7.7838 60.0488 8.17302C60.0488 8.56224 60.1274 8.90367 60.2844 9.19729C60.4483 9.48408 60.66 9.70259 60.9195 9.85282C61.1858 10.003 61.4657 10.0782 61.7594 10.0782C62.0598 10.0782 62.3398 10.003 62.5993 9.85282C62.8656 9.69577 63.0773 9.47043 63.2343 9.1768C63.3982 8.88318 63.4801 8.54176 63.4801 8.15254ZM65.4338 7.42531C65.4338 6.7288 65.5942 6.104 65.9152 5.5509C66.2429 4.99779 66.6834 4.5676 67.2365 4.26032C67.7964 3.94621 68.4076 3.78915 69.0699 3.78915C69.8279 3.78915 70.5005 3.97694 71.0877 4.3525C71.6818 4.72124 72.112 5.24703 72.3783 5.92987H70.9751C70.7907 5.55431 70.5346 5.27434 70.2069 5.08997C69.8791 4.90561 69.5001 4.81342 69.0699 4.81342C68.5988 4.81342 68.1788 4.91926 67.8101 5.13095C67.4413 5.34263 67.1511 5.64649 66.9394 6.04254C66.7346 6.43859 66.6322 6.89951 66.6322 7.42531C66.6322 7.9511 66.7346 8.41202 66.9394 8.80807C67.1511 9.20412 67.4413 9.5114 67.8101 9.72991C68.1788 9.94159 68.5988 10.0474 69.0699 10.0474C69.5001 10.0474 69.8791 9.95525 70.2069 9.77088C70.5346 9.58651 70.7907 9.30654 70.9751 8.93098H72.3783C72.112 9.61382 71.6818 10.1396 71.0877 10.5084C70.5005 10.8771 69.8279 11.0615 69.0699 11.0615C68.4007 11.0615 67.7896 10.9078 67.2365 10.6005C66.6834 10.2864 66.2429 9.85282 65.9152 9.29972C65.5942 8.74661 65.4338 8.12181 65.4338 7.42531ZM78.8562 5.35628V11H77.6885V10.3342C77.5041 10.5664 77.2617 10.7508 76.9613 10.8873C76.6676 11.0171 76.3535 11.0819 76.0189 11.0819C75.5751 11.0819 75.1756 10.9898 74.8205 10.8054C74.4723 10.621 74.1957 10.3479 73.9909 9.98597C73.7929 9.62407 73.6939 9.18705 73.6939 8.67491V5.35628H74.8513V8.50079C74.8513 9.00609 74.9776 9.39531 75.2303 9.66845C75.4829 9.93476 75.8277 10.0679 76.2648 10.0679C76.7018 10.0679 77.0466 9.93476 77.2993 9.66845C77.5588 9.39531 77.6885 9.00609 77.6885 8.50079V5.35628H78.8562ZM81.5645 6.1757C81.7352 5.8889 81.9605 5.66698 82.2405 5.50992C82.5273 5.34604 82.8653 5.2641 83.2545 5.2641V6.47274H82.9575C82.5 6.47274 82.1517 6.58882 81.9127 6.82099C81.6806 7.05315 81.5645 7.45603 81.5645 8.02962V11H80.3968V5.35628H81.5645V6.1757ZM83.9386 8.15254C83.9386 7.58577 84.0547 7.08388 84.2869 6.64686C84.5259 6.20984 84.8468 5.87183 85.2497 5.63284C85.6594 5.38701 86.1101 5.2641 86.6017 5.2641C87.0456 5.2641 87.4314 5.35287 87.7591 5.53041C88.0937 5.70112 88.36 5.91622 88.5581 6.1757V5.35628H89.736V11H88.5581V10.1601C88.36 10.4264 88.0903 10.6483 87.7489 10.8259C87.4075 11.0034 87.0182 11.0922 86.5812 11.0922C86.0964 11.0922 85.6526 10.9693 85.2497 10.7234C84.8468 10.4708 84.5259 10.1225 84.2869 9.67869C84.0547 9.22802 83.9386 8.7193 83.9386 8.15254ZM88.5581 8.17302C88.5581 7.7838 88.4761 7.44579 88.3122 7.159C88.1552 6.8722 87.9469 6.65369 87.6874 6.50346C87.4279 6.35324 87.148 6.27813 86.8475 6.27813C86.5471 6.27813 86.2671 6.35324 86.0076 6.50346C85.7482 6.64686 85.5365 6.86196 85.3726 7.14875C85.2155 7.42872 85.137 7.76331 85.137 8.15254C85.137 8.54176 85.2155 8.88318 85.3726 9.1768C85.5365 9.47043 85.7482 9.69577 86.0076 9.85282C86.2739 10.003 86.5539 10.0782 86.8475 10.0782C87.148 10.0782 87.4279 10.003 87.6874 9.85282C87.9469 9.70259 88.1552 9.48408 88.3122 9.19729C88.4761 8.90367 88.5581 8.56224 88.5581 8.17302ZM92.6319 6.30885V9.43287C92.6319 9.64455 92.6797 9.79819 92.7753 9.89379C92.8777 9.98256 93.0485 10.0269 93.2875 10.0269H94.0044V11H93.0826C92.5568 11 92.1539 10.8771 91.874 10.6313C91.594 10.3854 91.454 9.98597 91.454 9.43287V6.30885H90.7882V5.35628H91.454V3.95304H92.6319V5.35628H94.0044V6.30885H92.6319ZM97.5286 11.0922C96.996 11.0922 96.5146 10.9727 96.0844 10.7337C95.6542 10.4879 95.3162 10.1464 95.0704 9.70942C94.8246 9.26557 94.7017 8.75344 94.7017 8.17302C94.7017 7.59943 94.828 7.09071 95.0806 6.64686C95.3333 6.20301 95.6781 5.86159 96.1152 5.62259C96.5522 5.3836 97.0404 5.2641 97.5799 5.2641C98.1193 5.2641 98.6075 5.3836 99.0446 5.62259C99.4816 5.86159 99.8264 6.20301 100.079 6.64686C100.332 7.09071 100.458 7.59943 100.458 8.17302C100.458 8.74661 100.328 9.25533 100.069 9.69918C99.8093 10.143 99.4543 10.4879 99.0036 10.7337C98.5597 10.9727 98.0681 11.0922 97.5286 11.0922ZM97.5286 10.0782C97.8291 10.0782 98.1091 10.0065 98.3685 9.86306C98.6349 9.71967 98.8499 9.50457 99.0138 9.21777C99.1777 8.93098 99.2597 8.58273 99.2597 8.17302C99.2597 7.76331 99.1811 7.41848 99.0241 7.13851C98.867 6.85172 98.6588 6.63662 98.3993 6.49322C98.1398 6.34982 97.8598 6.27813 97.5594 6.27813C97.2589 6.27813 96.979 6.34982 96.7195 6.49322C96.4668 6.63662 96.2654 6.85172 96.1152 7.13851C95.9649 7.41848 95.8898 7.76331 95.8898 8.17302C95.8898 8.78075 96.0435 9.25192 96.3507 9.58651C96.6648 9.91428 97.0575 10.0782 97.5286 10.0782ZM102.78 6.1757C102.951 5.8889 103.176 5.66698 103.456 5.50992C103.743 5.34604 104.081 5.2641 104.47 5.2641V6.47274H104.173C103.716 6.47274 103.367 6.58882 103.128 6.82099C102.896 7.05315 102.78 7.45603 102.78 8.02962V11H101.612V5.35628H102.78V6.1757Z" fill="#9A9EA6"/>
<rect x="71" y="17" width="34" height="16" rx="8" fill="#D5D5D5"/>
<g style="mix-blend-mode:luminosity">
<path d="M79.47 24.43C79.8433 24.4967 80.16 24.6933 80.42 25.02C80.68 25.3467 80.81 25.7167 80.81 26.13C80.81 26.4833 80.7167 26.8033 80.53 27.09C80.35 27.37 80.0867 27.5933 79.74 27.76C79.3933 27.92 78.99 28 78.53 28H75.75V21.05H78.4C78.8733 21.05 79.28 21.13 79.62 21.29C79.96 21.45 80.2167 21.6667 80.39 21.94C80.5633 22.2067 80.65 22.5067 80.65 22.84C80.65 23.24 80.5433 23.5733 80.33 23.84C80.1167 24.1067 79.83 24.3033 79.47 24.43ZM76.89 23.97H78.3C78.6733 23.97 78.9633 23.8867 79.17 23.72C79.3833 23.5467 79.49 23.3 79.49 22.98C79.49 22.6667 79.3833 22.4233 79.17 22.25C78.9633 22.07 78.6733 21.98 78.3 21.98H76.89V23.97ZM78.43 27.07C78.8167 27.07 79.12 26.9767 79.34 26.79C79.56 26.6033 79.67 26.3433 79.67 26.01C79.67 25.67 79.5533 25.4 79.32 25.2C79.0867 25 78.7767 24.9 78.39 24.9H76.89V27.07H78.43ZM83.1888 21.97V24.01H85.5888V24.94H83.1888V27.07H85.8888V28H82.0488V21.04H85.8888V21.97H83.1888ZM91.783 21.05V21.98H89.933V28H88.793V21.98H86.933V21.05H91.783ZM97.1275 26.58H94.2175L93.7175 28H92.5275L95.0175 21.04H96.3375L98.8275 28H97.6275L97.1275 26.58ZM96.8075 25.65L95.6775 22.42L94.5375 25.65H96.8075Z" fill="white"/>
</g>
<defs>
<filter id="filter0_d_1247_3633" x="11.5855" y="13.879" width="18.0771" height="18.077" filterUnits="userSpaceOnUse" color-interpolation-filters="sRGB">
<feFlood flood-opacity="0" result="BackgroundImageFix"/>
<feColorMatrix in="SourceAlpha" type="matrix" values="0 0 0 0 0 0 0 0 0 0 0 0 0 0 0 0 0 0 127 0" result="hardAlpha"/>
<feOffset dy="0.615718"/>
<feGaussianBlur stdDeviation="0.307859"/>
<feComposite in2="hardAlpha" operator="out"/>
<feColorMatrix type="matrix" values="0 0 0 0 0 0 0 0 0 0 0 0 0 0 0 0 0 0 0.25 0"/>
<feBlend mode="normal" in2="BackgroundImageFix" result="effect1_dropShadow_1247_3633"/>
<feBlend mode="normal" in="SourceGraphic" in2="effect1_dropShadow_1247_3633" result="shape"/>
</filter>
</defs>
</svg>
