<svg width="20" height="16" viewBox="0 0 20 16" fill="none" xmlns="http://www.w3.org/2000/svg">
<path d="M19.17 12.5H0.71C0.521696 12.5 0.341105 12.5823 0.207954 12.7288C0.0748034 12.8753 0 13.074 0 13.2812L0 14.8438C0 15.051 0.0748034 15.2497 0.207954 15.3962C0.341105 15.5427 0.521696 15.625 0.71 15.625H19.17C19.3583 15.625 19.5389 15.5427 19.672 15.3962C19.8052 15.2497 19.88 15.051 19.88 14.8438V13.2812C19.88 13.074 19.8052 12.8753 19.672 12.7288C19.5389 12.5823 19.3583 12.5 19.17 12.5ZM19.17 6.25H0.71C0.521696 6.25 0.341105 6.33231 0.207954 6.47882C0.0748034 6.62534 0 6.82405 0 7.03125L0 8.59375C0 8.80095 0.0748034 8.99966 0.207954 9.14618C0.341105 9.29269 0.521696 9.375 0.71 9.375H19.17C19.3583 9.375 19.5389 9.29269 19.672 9.14618C19.8052 8.99966 19.88 8.80095 19.88 8.59375V7.03125C19.88 6.82405 19.8052 6.62534 19.672 6.47882C19.5389 6.33231 19.3583 6.25 19.17 6.25ZM19.17 0H0.71C0.521696 0 0.341105 0.0823104 0.207954 0.228823C0.0748034 0.375336 0 0.57405 0 0.78125L0 2.34375C0 2.55095 0.0748034 2.74966 0.207954 2.89618C0.341105 3.04269 0.521696 3.125 0.71 3.125H19.17C19.3583 3.125 19.5389 3.04269 19.672 2.89618C19.8052 2.74966 19.88 2.55095 19.88 2.34375V0.78125C19.88 0.57405 19.8052 0.375336 19.672 0.228823C19.5389 0.0823104 19.3583 0 19.17 0Z" fill="white"/>
</svg>
