<svg width="16" height="15" viewBox="0 0 16 15" fill="none" xmlns="http://www.w3.org/2000/svg">
<path d="M14.9727 1.58673L13.2227 12.9344C13.1953 13.2078 13.0312 13.4539 12.7852 13.5906C12.6484 13.6453 12.5117 13.7 12.3477 13.7C12.2383 13.7 12.1289 13.6727 12.0195 13.618L8.68359 12.2234L7.28906 14.3016C7.17969 14.493 6.98828 14.575 6.79688 14.575C6.49609 14.575 6.25 14.3289 6.25 14.0281V11.4031C6.25 11.1844 6.30469 10.993 6.41406 10.8563L12.375 3.20001L4.33594 10.4461L1.51953 9.27032C1.21875 9.13361 1 8.86017 1 8.5047C0.972656 8.12189 1.13672 7.84845 1.4375 7.68439L13.6875 0.711731C13.9609 0.547668 14.3438 0.547668 14.6172 0.739075C14.8906 0.930481 15.0273 1.25861 14.9727 1.58673Z" fill="white"/>
</svg>
