<svg width="40" height="40" viewBox="0 0 40 40" fill="none" xmlns="http://www.w3.org/2000/svg">
<circle cx="20" cy="20" r="20" fill="#020041"/>
<path d="M28.8311 16.0493C27.7781 12.1547 24.4919 9.42444 20.6909 9.42444C18.0404 9.42444 15.5714 10.7606 13.9667 13.0298C13.5238 12.9279 13.0708 12.8762 12.6164 12.8756C9.04996 12.8753 6.14746 16.037 6.14746 19.9247C6.14746 21.3188 6.52276 22.6691 7.23106 23.8301C7.39756 24.1019 7.67806 24.2648 7.97806 24.2648H13.955C13.9979 21.4853 16.2614 19.2446 19.0511 19.2446C21.8408 19.2446 24.104 21.4853 24.1472 24.2648H32.2307C32.5148 24.2648 32.7815 24.1193 32.9516 23.8703C33.5411 23.007 33.8553 21.9853 33.8528 20.9399C33.8525 18.0431 31.508 15.6986 28.8311 16.0493Z" fill="white"/>
<path d="M22.2034 26.099L19.228 21.9407C19.2013 21.9036 19.1662 21.8734 19.1255 21.8526C19.0849 21.8317 19.0399 21.8208 18.9943 21.8207H18.9937C18.9007 21.8207 18.8143 21.8657 18.76 21.9419L15.8038 26.099C15.7733 26.1421 15.7553 26.1928 15.7517 26.2455C15.748 26.2982 15.7589 26.3508 15.7831 26.3978C15.8323 26.4938 15.9313 26.5532 16.039 26.5532H17.4292V30.2879C17.4292 30.4475 17.5582 30.5759 17.7166 30.5759H20.2906C20.4496 30.5759 20.578 30.4475 20.578 30.2879V26.5532H21.9694C22.0221 26.5531 22.0738 26.5385 22.1188 26.511C22.1638 26.4835 22.2003 26.4441 22.2245 26.3972C22.2486 26.3504 22.2594 26.2978 22.2557 26.2452C22.252 26.1926 22.2339 26.142 22.2034 26.099Z" fill="white"/>
</svg>
