<svg width="82" height="67" viewBox="0 0 82 67" fill="none" xmlns="http://www.w3.org/2000/svg">
<g filter="url(#filter0_d_659_4397)">
<path d="M41.1836 24.3809L37.8418 22.4219C38.0723 21.6152 38.1875 20.6934 38.1875 19.7715C38.1875 18.7344 38.0723 17.8125 37.8418 16.8906L41.1836 15.0469C41.6445 14.7012 41.9902 14.125 41.7598 13.5488C40.9531 11.0137 39.5703 8.82422 37.8418 6.86523C37.6113 6.63477 37.2656 6.4043 37.0352 6.4043C36.8047 6.4043 36.5742 6.51953 36.3438 6.63477L33.002 8.59375C31.6191 7.44141 30.0059 6.51953 28.2773 5.82812V1.91016C28.2773 1.33398 27.8164 0.873047 27.2402 0.757812C25.9727 0.527344 24.7051 0.296875 23.4375 0.296875C22.0547 0.296875 20.7871 0.527344 19.5195 0.757812C18.9434 0.873047 18.4824 1.33398 18.4824 1.91016V5.82812C16.7539 6.51953 15.1406 7.44141 13.7578 8.59375L10.416 6.63477C10.1855 6.51953 9.95508 6.4043 9.72461 6.4043C9.49414 6.4043 9.14844 6.63477 8.91797 6.86523C7.18945 8.82422 5.80664 11.0137 5 13.5488C4.76953 14.125 5.11523 14.7012 5.57617 15.0469L8.91797 16.8906C8.6875 17.8125 8.6875 18.7344 8.6875 19.7715C8.6875 20.6934 8.6875 21.6152 8.91797 22.4219L5.57617 24.3809C5.11523 24.7266 4.76953 25.3027 5 25.7637C5.80664 28.1836 7.18945 30.4883 8.91797 32.4473C9.14844 32.793 9.49414 32.9082 9.72461 32.9082C9.95508 32.9082 10.1855 32.9082 10.416 32.793L13.7578 30.834C15.1406 32.1016 16.7539 33.0234 18.4824 33.5996V37.5176C18.4824 38.0938 18.9434 38.5547 19.5195 38.6699C20.7871 38.9004 22.0547 39.1309 23.4375 39.1309C24.7051 39.1309 25.9727 38.9004 27.2402 38.6699C27.8164 38.5547 28.2773 38.0938 28.2773 37.5176V33.5996C30.0059 33.0234 31.6191 32.1016 33.002 30.834L36.3438 32.793C36.5742 32.9082 36.8047 32.9082 37.0352 32.9082C37.2656 32.9082 37.6113 32.793 37.8418 32.5625C39.5703 30.6035 40.9531 28.2988 41.7598 25.8789C41.9902 25.3027 41.6445 24.7266 41.1836 24.3809ZM23.4375 25.3027C20.3262 25.3027 17.9062 22.7676 17.9062 19.7715C17.9062 16.6602 20.3262 14.2402 23.4375 14.2402C26.4336 14.2402 28.9688 16.6602 28.9688 19.7715C28.9688 22.7676 26.4336 25.3027 23.4375 25.3027ZM77.3672 36.1348C77.252 35.5586 76.791 35.0977 76.2148 35.0977H72.2969C71.6055 33.3691 70.6836 31.7559 69.5312 30.373L71.4902 27.0312C71.6055 26.8008 71.6055 26.5703 71.6055 26.3398C71.6055 26.1094 71.4902 25.7637 71.2598 25.5332C69.3008 23.8047 66.9961 22.4219 64.4609 21.6152C64 21.3848 63.4238 21.7305 63.0781 22.1914L61.1191 25.5332C60.1973 25.3027 59.2754 25.1875 58.3535 25.1875C57.4316 25.1875 56.5098 25.3027 55.5879 25.5332L53.7441 22.1914C53.3984 21.7305 52.8223 21.3848 52.2461 21.6152C49.7109 22.4219 47.5215 23.8047 45.5625 25.5332C45.332 25.7637 45.1016 26.1094 45.1016 26.3398C45.1016 26.5703 45.2168 26.8008 45.332 27.0312L47.291 30.373C46.0234 31.7559 45.1016 33.3691 44.5254 35.0977H40.6074C40.0312 35.0977 39.5703 35.5586 39.4551 36.1348C39.1094 37.4023 38.9941 38.6699 38.9941 39.9375C38.9941 41.3203 39.1094 42.5879 39.4551 43.8555C39.5703 44.4316 40.0312 44.8926 40.6074 44.8926H44.5254C45.1016 46.6211 46.0234 48.2344 47.291 49.6172L45.332 52.959C45.2168 53.1895 45.1016 53.4199 45.1016 53.6504C45.1016 53.8809 45.2168 54.2266 45.5625 54.457C47.4062 56.1855 49.7109 57.5684 52.2461 58.375C52.8223 58.6055 53.3984 58.2598 53.7441 57.7988L55.5879 54.457C56.5098 54.6875 57.4316 54.6875 58.3535 54.6875C59.2754 54.6875 60.3125 54.6875 61.1191 54.457L63.0781 57.7988C63.4238 58.2598 64 58.6055 64.5762 58.375C66.9961 57.5684 69.3008 56.1855 71.2598 54.457C71.4902 54.2266 71.6055 53.8809 71.6055 53.6504C71.6055 53.4199 71.6055 53.1895 71.4902 52.959L69.5312 49.6172C70.6836 48.2344 71.6055 46.6211 72.2969 44.8926H76.2148C76.791 44.8926 77.252 44.4316 77.3672 43.8555C77.5977 42.5879 77.8281 41.3203 77.8281 39.9375C77.8281 38.6699 77.5977 37.4023 77.3672 36.1348ZM58.3535 45.4688C55.3574 45.4688 52.8223 43.0488 52.8223 39.9375C52.8223 36.9414 55.3574 34.4062 58.3535 34.4062C61.4648 34.4062 63.8848 36.9414 63.8848 39.9375C63.8848 43.0488 61.4648 45.4688 58.3535 45.4688Z" fill="url(#paint0_linear_659_4397)"/>
</g>
<defs>
<filter id="filter0_d_659_4397" x="0.769531" y="0.296875" width="81.0586" height="66.3086" filterUnits="userSpaceOnUse" color-interpolation-filters="sRGB">
<feFlood flood-opacity="0" result="BackgroundImageFix"/>
<feColorMatrix in="SourceAlpha" type="matrix" values="0 0 0 0 0 0 0 0 0 0 0 0 0 0 0 0 0 0 127 0" result="hardAlpha"/>
<feOffset dy="4"/>
<feGaussianBlur stdDeviation="2"/>
<feComposite in2="hardAlpha" operator="out"/>
<feColorMatrix type="matrix" values="0 0 0 0 0 0 0 0 0 0 0 0 0 0 0 0 0 0 0.25 0"/>
<feBlend mode="normal" in2="BackgroundImageFix" result="effect1_dropShadow_659_4397"/>
<feBlend mode="normal" in="SourceGraphic" in2="effect1_dropShadow_659_4397" result="shape"/>
</filter>
<linearGradient id="paint0_linear_659_4397" x1="5" y1="28.5" x2="130.5" y2="28" gradientUnits="userSpaceOnUse">
<stop stop-color="#C21500"/>
<stop offset="1" stop-color="#FFC500"/>
</linearGradient>
</defs>
</svg>
